# Blender 4.2.1 LTS
# www.blender.org
o untitled
v 1.057440 0.974391 0.000000
v 1.202330 0.974391 0.000000
v 1.055160 0.737320 0.000000
v 1.230360 0.753470 0.000000
v 0.912348 0.974391 0.000000
v 0.881345 0.754082 0.000000
v 1.358290 0.974391 0.000000
v 0.963519 0.582496 0.000000
v 1.145350 0.582028 0.000000
v 1.319130 0.605802 0.000000
v 1.418630 0.761066 0.000000
v 0.756310 0.974391 0.000000
v 0.701637 0.746141 0.000000
v 0.784550 0.589867 0.000000
v 1.524740 0.974391 0.000000
v 1.052870 0.419641 0.000000
v 0.870123 0.427304 0.000000
v 1.233110 0.423182 0.000000
v 1.390710 0.459078 0.000000
v 1.497900 0.609081 0.000000
v 1.599280 0.763054 0.000000
v 0.601631 0.974391 0.000000
v 0.600716 0.586747 0.000000
v 0.525733 0.746281 0.000000
v 0.687703 0.430773 0.000000
v 1.700200 0.974391 0.000000
v 1.159180 0.268067 0.000000
v 0.964671 0.263857 0.000000
v 0.778602 0.269995 0.000000
v 1.374600 0.290794 0.000000
v 1.550280 0.446843 0.000000
v 1.671540 0.602214 0.000000
v 1.776980 0.754155 0.000000
v 0.443866 0.974391 0.000000
v 0.415014 0.589227 0.000000
v 0.501509 0.433459 0.000000
v 0.353551 0.744584 0.000000
v 0.594740 0.276803 0.000000
v 1.875340 0.974391 0.000000
v 1.277090 0.135396 0.000000
v 1.073100 0.113567 0.000000
v 0.877221 0.109872 0.000000
v 0.687900 0.115828 0.000000
v 1.476710 0.149343 0.000000
v 1.578790 0.298342 0.000000
v 1.732470 0.444701 0.000000
v 1.853330 0.585848 0.000000
v 1.951600 0.749903 0.000000
v 0.283275 0.974391 0.000000
v 0.215751 0.599339 0.000000
v 0.312949 0.445280 0.000000
v 0.409521 0.283913 0.000000
v 0.195549 0.768885 0.000000
v 0.505809 0.123304 0.000000
v 2.050000 0.974391 0.000000
v 1.458590 -0.010090 0.000000
v 1.128790 -0.042209 0.000000
v 1.294110 -0.023003 0.000000
v 0.952219 -0.044692 0.000000
v 0.765323 -0.040941 0.000000
v 0.578667 -0.040434 0.000000
v 1.629760 0.010442 0.000000
v 1.668590 0.158257 0.000000
v 1.770950 0.287039 0.000000
v 1.925010 0.415124 0.000000
v 2.031560 0.586368 0.000000
v 2.129820 0.750002 0.000000
v 0.110105 0.974391 0.000000
v 0.043356 0.746690 0.000000
v 0.026033 0.580053 0.000000
v 0.124398 0.431437 0.000000
v 0.230088 0.288545 0.000000
v 0.327704 0.126132 0.000000
v 0.399280 -0.033307 0.000000
v 2.225380 0.974391 0.000000
v 1.398610 -0.172997 0.000000
v 1.578620 -0.149794 0.000000
v 1.038300 -0.206106 0.000000
v 1.224210 -0.193328 0.000000
v 0.854503 -0.201713 0.000000
v 0.671292 -0.194239 0.000000
v 0.477568 -0.199827 0.000000
v 1.763960 -0.108077 0.000000
v 1.819620 0.060924 0.000000
v 1.909860 0.212424 0.000000
v 2.054450 0.287974 0.000000
v 2.125450 0.444305 0.000000
v 2.222260 0.599702 0.000000
v 2.315640 0.758214 0.000000
v -0.055476 0.974391 0.000000
v -0.118269 0.745535 0.000000
v -0.152693 0.572731 0.000000
v -0.060753 0.412565 0.000000
v 0.044830 0.256689 0.000000
v 0.157143 0.132171 0.000000
v 0.212251 -0.025499 0.000000
v 0.296982 -0.182827 0.000000
v 2.408220 0.974391 0.000000
v 1.513610 -0.310171 0.000000
v 1.331010 -0.335129 0.000000
v 1.699670 -0.274239 0.000000
v 0.946283 -0.364872 0.000000
v 1.140960 -0.351884 0.000000
v 0.761766 -0.358597 0.000000
v 0.577032 -0.340059 0.000000
v 0.364906 -0.357846 0.000000
v 1.888710 -0.237331 0.000000
v 1.954200 -0.080161 0.000000
v 2.011170 0.071078 0.000000
v 2.152740 0.147241 0.000000
v 2.237540 0.295419 0.000000
v 2.313750 0.444270 0.000000
v 2.408450 0.600331 0.000000
v 2.499310 0.758126 0.000000
v -0.223574 0.974391 0.000000
v -0.284100 0.740840 0.000000
v -0.242803 0.402669 0.000000
v -0.322324 0.564762 0.000000
v -0.118392 0.235769 0.000000
v 0.015916 0.048429 0.000000
v 0.089549 -0.139624 0.000000
v 0.174985 -0.299493 0.000000
v 2.590500 0.974391 0.000000
v 1.632820 -0.440528 0.000000
v 1.450290 -0.473575 0.000000
v 1.262620 -0.490341 0.000000
v 1.820660 -0.399145 0.000000
v 1.061260 -0.505309 0.000000
v 0.858426 -0.523071 0.000000
v 0.677526 -0.513544 0.000000
v 0.501857 -0.477225 0.000000
v 0.219831 -0.482951 0.000000
v 0.366761 -0.561860 0.000000
v 2.018250 -0.351362 0.000000
v 2.092940 -0.187572 0.000000
v 2.174940 -0.026459 0.000000
v 2.322230 0.127336 0.000000
v 2.416890 0.274914 0.000000
v 2.489600 0.439283 0.000000
v 2.591910 0.600043 0.000000
v 2.686380 0.745137 0.000000
v -0.387377 0.974391 0.000000
v -0.454961 0.725402 0.000000
v -0.424837 0.363894 0.000000
v -0.287640 0.233076 0.000000
v -0.472562 0.536520 0.000000
v -0.153476 0.066744 0.000000
v -0.088641 -0.110183 0.000000
v -0.032318 -0.285459 0.000000
v 0.059237 -0.426594 0.000000
v 2.766800 0.974391 0.000000
v 1.572350 -0.612945 0.000000
v 1.749070 -0.567337 0.000000
v 1.383650 -0.631200 0.000000
v 1.182350 -0.634299 0.000000
v 1.940140 -0.517163 0.000000
v 0.968892 -0.651224 0.000000
v 0.755482 -0.685763 0.000000
v 0.556206 -0.643470 0.000000
v 0.053826 -0.588224 0.000000
v 0.215163 -0.675562 0.000000
v 0.389215 -0.727666 0.000000
v 2.132160 -0.484206 0.000000
v 2.212720 -0.324754 0.000000
v 2.289100 -0.169068 0.000000
v 2.372750 -0.024722 0.000000
v 2.517650 0.099217 0.000000
v 2.591190 0.273785 0.000000
v 2.656870 0.440404 0.000000
v 2.782190 0.560286 0.000000
v 2.858070 0.745944 0.000000
v -0.554554 0.974391 0.000000
v -0.616904 0.615194 0.000000
v -0.616789 0.783657 0.000000
v -0.604887 0.430135 0.000000
v -0.593228 0.258911 0.000000
v -0.453703 0.171315 0.000000
v -0.316968 0.071331 0.000000
v -0.267684 -0.090109 0.000000
v -0.212990 -0.259585 0.000000
v -0.117031 -0.455449 0.000000
v 2.944040 0.974391 0.000000
v 1.700600 -0.757139 0.000000
v 1.507810 -0.773587 0.000000
v 1.860720 -0.687051 0.000000
v 1.306120 -0.773994 0.000000
v 1.106330 -0.772600 0.000000
v 2.050320 -0.644851 0.000000
v 0.910394 -0.804095 0.000000
v 0.742083 -0.874016 0.000000
v 0.585151 -0.804724 0.000000
v 0.061223 -0.770709 0.000000
v -0.099788 -0.657868 0.000000
v 0.236567 -0.864684 0.000000
v 0.420873 -0.880340 0.000000
v 2.238860 -0.620348 0.000000
v 2.325570 -0.454567 0.000000
v 2.413610 -0.285839 0.000000
v 2.512400 -0.116832 0.000000
v 2.672790 -0.000512 0.000000
v 2.723190 0.164523 0.000000
v 2.777770 0.341682 0.000000
v 2.932300 0.414928 0.000000
v 2.954580 0.591465 0.000000
v 3.039200 0.763905 0.000000
v -0.786233 0.974391 0.000000
v -0.767556 0.709286 0.000000
v -0.764336 0.519795 0.000000
v -0.758678 0.340048 0.000000
v -0.750853 0.164093 0.000000
v -0.599227 0.069487 0.000000
v -0.446162 -0.028892 0.000000
v -0.405328 -0.207237 0.000000
v -0.293476 -0.407063 0.000000
v -0.265711 -0.581775 0.000000
v 3.130690 0.974391 0.000000
v 1.627180 -0.979397 0.000000
v 1.818380 -0.979397 0.000000
v 1.430300 -0.979397 0.000000
v 1.957110 -0.802102 0.000000
v 1.243740 -0.979397 0.000000
v 1.080050 -0.979397 0.000000
v 2.144720 -0.781869 0.000000
v 0.991014 -0.979397 0.000000
v 0.567455 -0.986655 0.000000
v 0.754369 -1.046660 0.000000
v -0.105463 -0.850820 0.000000
v 0.054544 -0.943726 0.000000
v -0.253992 -0.756719 0.000000
v 0.201197 -1.048630 0.000000
v 0.375848 -1.032580 0.000000
v 2.328810 -0.770246 0.000000
v 2.420860 -0.606716 0.000000
v 2.509380 -0.448906 0.000000
v 2.593300 -0.297494 0.000000
v 2.689280 -0.164800 0.000000
v 2.854900 -0.112120 0.000000
v 2.866120 0.049631 0.000000
v 2.908330 0.231374 0.000000
v 3.092000 0.287489 0.000000
v 3.105310 0.463317 0.000000
v 3.131070 0.621912 0.000000
v 3.229730 0.762076 0.000000
v -0.990923 0.974391 0.000000
v -0.990923 0.599369 0.000000
v -0.990923 0.421812 0.000000
v -0.990923 0.246503 0.000000
v -0.990923 0.075556 0.000000
v -0.756458 -0.015438 0.000000
v -0.589437 -0.111571 0.000000
v -0.598893 -0.273986 0.000000
v -0.454790 -0.361412 0.000000
v -0.440798 -0.532539 0.000000
v -0.434941 -0.703598 0.000000
v 3.316560 0.974391 0.000000
v 2.030710 -0.979397 0.000000
v 2.231080 -0.979397 0.000000
v 0.991014 -1.142670 0.000000
v 0.471457 -1.182300 0.000000
v 0.620677 -1.143470 0.000000
v 0.757096 -1.240070 0.000000
v -0.263647 -0.958504 0.000000
v -0.117343 -1.035800 0.000000
v 0.029644 -1.121980 0.000000
v -0.386349 -0.865661 0.000000
v 0.151759 -1.235170 0.000000
v 0.312482 -1.202750 0.000000
v 2.419220 -0.979397 0.000000
v 2.509880 -0.758014 0.000000
v 2.608520 -0.598004 0.000000
v 2.702870 -0.442875 0.000000
v 2.797100 -0.295893 0.000000
v 2.971370 -0.246728 0.000000
v 3.047920 -0.073644 0.000000
v 3.030990 0.117073 0.000000
v 3.177280 0.062673 0.000000
v 3.257990 0.216330 0.000000
v 3.267910 0.391890 0.000000
v 3.295920 0.570422 0.000000
v 3.402550 0.739267 0.000000
v -0.990923 -0.101149 0.000000
v -0.758238 -0.187768 0.000000
v -0.758450 -0.362941 0.000000
v -0.603918 -0.454266 0.000000
v -0.604538 -0.620668 0.000000
v -0.620972 -0.774888 0.000000
v -0.536837 -0.885579 0.000000
v 3.492600 0.974391 0.000000
v 0.991014 -1.314590 0.000000
v 0.422717 -1.368270 0.000000
v 0.595189 -1.322290 0.000000
v 0.759101 -1.412450 0.000000
v -0.434767 -1.047220 0.000000
v -0.283497 -1.141220 0.000000
v -0.132322 -1.215850 0.000000
v 0.004966 -1.316900 0.000000
v 0.113084 -1.443750 0.000000
v 0.256865 -1.373820 0.000000
v 2.600050 -0.979397 0.000000
v 2.690850 -0.756032 0.000000
v 2.795380 -0.595597 0.000000
v 2.892310 -0.436940 0.000000
v 3.057720 -0.415381 0.000000
v 3.153960 -0.251589 0.000000
v 3.245800 -0.097929 0.000000
v 3.352830 0.048950 0.000000
v 3.436280 0.211706 0.000000
v 3.440700 0.380294 0.000000
v 3.467000 0.561520 0.000000
v 3.575330 0.756797 0.000000
v -0.990923 -0.278487 0.000000
v -0.990923 -0.454641 0.000000
v -0.766635 -0.538977 0.000000
v -0.769755 -0.712808 0.000000
v -0.749800 -0.900849 0.000000
v -0.611800 -1.016970 0.000000
v 3.673720 0.974391 0.000000
v 0.991014 -1.489280 0.000000
v 0.274777 -1.553090 0.000000
v 0.443291 -1.539640 0.000000
v 0.597134 -1.493550 0.000000
v 0.751395 -1.586960 0.000000
v -0.599025 -1.173680 0.000000
v -0.442223 -1.237660 0.000000
v -0.294911 -1.329310 0.000000
v -0.149487 -1.394300 0.000000
v -0.048016 -1.518540 0.000000
v 0.103461 -1.614850 0.000000
v 2.781110 -0.979397 0.000000
v 2.871740 -0.757870 0.000000
v 2.978780 -0.592776 0.000000
v 3.152320 -0.579206 0.000000
v 3.240240 -0.408752 0.000000
v 3.341210 -0.262576 0.000000
v 3.443420 -0.115056 0.000000
v 3.523430 0.049155 0.000000
v 3.615680 0.237669 0.000000
v 3.611870 0.426792 0.000000
v 3.634330 0.606838 0.000000
v 3.770500 0.736534 0.000000
v -0.990923 -0.637123 0.000000
v -0.990923 -0.820165 0.000000
v -0.990923 -0.995324 0.000000
v -0.766020 -1.087430 0.000000
v 3.851930 0.974391 0.000000
v 0.991014 -1.661670 0.000000
v 0.230954 -1.739420 0.000000
v 0.401596 -1.708310 0.000000
v 0.585392 -1.678370 0.000000
v 0.775149 -1.753830 0.000000
v -0.753460 -1.270090 0.000000
v -0.590281 -1.350910 0.000000
v -0.424535 -1.437400 0.000000
v -0.252587 -1.535450 0.000000
v -0.101880 -1.677270 0.000000
v 0.046530 -1.770440 0.000000
v 2.964950 -0.979397 0.000000
v 3.051700 -0.755225 0.000000
v 3.225770 -0.737616 0.000000
v 3.335010 -0.583644 0.000000
v 3.425360 -0.439711 0.000000
v 3.521480 -0.282850 0.000000
v 3.633040 -0.124443 0.000000
v 3.679370 0.054254 0.000000
v 3.799410 0.171606 0.000000
v 3.777790 0.346647 0.000000
v 3.781580 0.530722 0.000000
v 3.935350 0.619132 0.000000
v 3.951150 0.776439 0.000000
v -0.990923 -1.179860 0.000000
v 4.048560 0.974391 0.000000
v 0.991014 -1.848710 0.000000
v 0.177341 -1.910750 0.000000
v 0.342997 -1.890520 0.000000
v 0.499504 -1.862160 0.000000
v 0.648925 -1.845670 0.000000
v 0.778335 -1.948010 0.000000
v -0.990923 -1.357060 0.000000
v -0.750534 -1.451580 0.000000
v -0.582060 -1.529500 0.000000
v -0.421999 -1.620810 0.000000
v -0.271312 -1.716910 0.000000
v -0.141971 -1.861880 0.000000
v 0.006469 -1.925160 0.000000
v 3.143110 -0.979397 0.000000
v 3.311040 -0.979397 0.000000
v 3.408920 -0.757495 0.000000
v 3.519060 -0.609811 0.000000
v 3.609410 -0.454472 0.000000
v 3.700940 -0.304469 0.000000
v 3.815720 -0.193227 0.000000
v 3.820590 -0.030112 0.000000
v 3.954910 0.074919 0.000000
v 3.954700 0.258871 0.000000
v 3.941920 0.436123 0.000000
v 4.092850 0.544016 0.000000
v 4.129140 0.739021 0.000000
v 4.229720 0.974391 0.000000
v 0.991014 -2.036380 0.000000
v 0.117124 -2.071790 0.000000
v 0.294206 -2.065170 0.000000
v 0.460144 -2.050370 0.000000
v 0.616977 -2.025040 0.000000
v 0.758417 -2.127330 0.000000
v -0.990923 -1.537400 0.000000
v -0.754457 -1.624310 0.000000
v -0.595104 -1.706150 0.000000
v -0.445319 -1.802720 0.000000
v -0.308298 -1.887360 0.000000
v -0.233534 -2.038390 0.000000
v -0.064628 -2.069400 0.000000
v 3.488100 -0.979397 0.000000
v 3.600390 -0.768185 0.000000
v 3.703570 -0.613187 0.000000
v 3.802470 -0.452452 0.000000
v 3.930460 -0.324602 0.000000
v 3.985020 -0.134929 0.000000
v 4.120590 0.168642 0.000000
v 4.099290 -0.011428 0.000000
v 4.110280 0.346893 0.000000
v 4.246660 0.437825 0.000000
v 4.256350 0.607842 0.000000
v 4.331620 0.758317 0.000000
v 4.416190 0.974391 0.000000
v 0.991014 -2.216830 0.000000
v 0.043014 -2.224960 0.000000
v 0.227060 -2.223480 0.000000
v 0.411270 -2.225840 0.000000
v 0.586320 -2.213000 0.000000
v 0.766415 -2.296730 0.000000
v -0.990923 -1.719980 0.000000
v -0.748455 -1.805150 0.000000
v -0.584232 -1.899990 0.000000
v -0.427634 -2.014990 0.000000
v -0.307543 -2.195300 0.000000
v -0.141593 -2.219940 0.000000
v 3.671130 -0.979397 0.000000
v 3.798330 -0.777225 0.000000
v 3.873160 -0.639716 0.000000
v 3.973010 -0.530778 0.000000
v 4.079790 -0.418029 0.000000
v 4.121950 -0.258777 0.000000
v 4.220700 -0.124756 0.000000
v 4.266030 0.053462 0.000000
v 4.291100 0.239979 0.000000
v 4.429900 0.577271 0.000000
v 4.393800 0.393568 0.000000
v 4.515950 0.747121 0.000000
v 4.595190 0.974391 0.000000
v 0.991014 -2.398150 0.000000
v -0.038620 -2.377100 0.000000
v 0.140353 -2.379630 0.000000
v 0.315095 -2.381440 0.000000
v 0.473051 -2.408100 0.000000
v 0.625626 -2.387740 0.000000
v 0.761934 -2.488760 0.000000
v -0.990923 -1.895380 0.000000
v -0.752863 -1.982750 0.000000
v -0.604793 -2.078800 0.000000
v -0.468357 -2.191160 0.000000
v -0.356759 -2.367970 0.000000
v -0.204426 -2.384550 0.000000
v 3.849540 -0.979397 0.000000
v 4.021980 -0.742992 0.000000
v 4.142410 -0.596158 0.000000
v 4.244900 -0.431257 0.000000
v 4.323720 -0.276513 0.000000
v 4.395360 -0.106433 0.000000
v 4.432920 0.070608 0.000000
v 4.480540 0.237947 0.000000
v 4.549730 0.424121 0.000000
v 4.621340 0.597553 0.000000
v 4.712210 0.743478 0.000000
v 4.765890 0.974391 0.000000
v 0.991014 -2.577870 0.000000
v -0.115187 -2.542550 0.000000
v 0.061672 -2.529660 0.000000
v 0.249584 -2.535330 0.000000
v 0.404470 -2.585510 0.000000
v 0.584706 -2.566840 0.000000
v 0.769891 -2.660950 0.000000
v -0.990923 -2.070910 0.000000
v -0.772854 -2.163160 0.000000
v -0.634816 -2.258540 0.000000
v -0.508676 -2.358770 0.000000
v -0.451044 -2.531770 0.000000
v -0.290502 -2.552640 0.000000
v 4.005650 -0.979397 0.000000
v 4.165380 -0.979397 0.000000
v 4.226900 -0.753110 0.000000
v 4.330620 -0.593552 0.000000
v 4.430830 -0.431954 0.000000
v 4.514430 -0.262028 0.000000
v 4.572770 -0.090964 0.000000
v 4.609360 0.087929 0.000000
v 4.655100 0.270223 0.000000
v 4.712820 0.450629 0.000000
v 4.834100 0.567476 0.000000
v 4.890520 0.736264 0.000000
v 4.927030 0.974391 0.000000
v 0.991014 -2.766160 0.000000
v -0.207085 -2.705910 0.000000
v -0.017601 -2.691330 0.000000
v 0.164436 -2.667920 0.000000
v 0.301206 -2.764720 0.000000
v 0.469647 -2.750920 0.000000
v 0.627133 -2.733560 0.000000
v 0.764382 -2.847550 0.000000
v -0.990923 -2.257160 0.000000
v -0.773914 -2.355650 0.000000
v -0.628275 -2.461980 0.000000
v -0.579157 -2.639120 0.000000
v -0.396340 -2.727690 0.000000
v 4.342260 -0.979397 0.000000
v 4.422330 -0.752562 0.000000
v 4.520720 -0.590713 0.000000
v 4.614830 -0.416563 0.000000
v 4.712150 -0.244491 0.000000
v 4.744030 -0.050229 0.000000
v 4.780320 0.143206 0.000000
v 4.826670 0.337963 0.000000
v 4.976140 0.424075 0.000000
v 5.033110 0.579903 0.000000
v 5.066750 0.741692 0.000000
v 5.127520 0.974391 0.000000
v 0.991014 -2.992140 0.000000
v -0.084457 -2.846370 0.000000
v -0.269345 -2.874670 0.000000
v 0.113430 -2.821590 0.000000
v 0.237750 -2.955740 0.000000
v 0.410686 -2.929410 0.000000
v 0.592763 -2.902140 0.000000
v 0.741318 -3.024800 0.000000
v -0.990923 -2.443800 0.000000
v -0.764938 -2.548520 0.000000
v -0.555694 -2.815350 0.000000
v -0.735922 -2.721300 0.000000
v -0.410465 -2.952500 0.000000
v 4.524770 -0.979397 0.000000
v 4.614390 -0.751287 0.000000
v 4.704010 -0.587508 0.000000
v 4.791030 -0.433002 0.000000
v 4.897250 -0.321535 0.000000
v 4.893120 -0.153554 0.000000
v 4.913020 0.026702 0.000000
v 4.943900 0.217974 0.000000
v 5.095790 0.297085 0.000000
v 5.333514 0.474400 0.000000
v 5.333514 0.603652 0.000000
v 5.333514 0.974391 0.000000
v 0.893702 -3.142090 0.000000
v 1.093160 -2.992140 0.000000
v 0.044823 -2.970840 0.000000
v -0.152135 -3.008020 0.000000
v -0.293665 -3.112870 0.000000
v 0.171885 -3.125760 0.000000
v 0.357012 -3.117290 0.000000
v 0.545814 -3.063450 0.000000
v 0.693743 -3.187940 0.000000
v -0.990923 -2.624860 0.000000
v -0.738445 -2.886090 0.000000
v -0.582026 -2.989000 0.000000
v -0.990923 -2.791890 0.000000
v -0.456370 -3.143340 0.000000
v 4.707120 -0.979397 0.000000
v 4.805570 -0.742264 0.000000
v 4.900480 -0.574709 0.000000
v 5.035970 -0.434532 0.000000
v 5.063200 -0.252566 0.000000
v 5.066610 -0.075676 0.000000
v 5.076680 0.105652 0.000000
v 5.333514 0.164707 0.000000
v 5.333514 0.341634 0.000000
v 0.825026 -3.318270 0.000000
v 1.012560 -3.289470 0.000000
v 1.173190 -3.239360 0.000000
v 1.251680 -2.992140 0.000000
v 0.003551 -3.121220 0.000000
v -0.136547 -3.187650 0.000000
v -0.355470 -3.301930 0.000000
v 0.043223 -3.289170 0.000000
v 0.258287 -3.278960 0.000000
v 0.499308 -3.226890 0.000000
v 0.637474 -3.357540 0.000000
v -0.990923 -2.958640 0.000000
v -0.759721 -3.054560 0.000000
v -0.617973 -3.156870 0.000000
v -0.552172 -3.316220 0.000000
v 4.884350 -0.979397 0.000000
v 4.993320 -0.754526 0.000000
v 5.080050 -0.608537 0.000000
v 5.333514 -0.473046 0.000000
v 5.333514 -0.327164 0.000000
v 5.333514 -0.163638 0.000000
v 5.333514 0.002074 0.000000
v 0.769407 -3.501550 0.000000
v 0.939240 -3.467110 0.000000
v 1.125490 -3.462710 0.000000
v 1.283120 -3.383770 0.000000
v 1.360180 -3.228570 0.000000
v 1.440480 -2.992140 0.000000
v -0.173416 -3.326950 0.000000
v -0.430735 -3.476210 0.000000
v -0.254766 -3.475600 0.000000
v -0.060220 -3.457600 0.000000
v 0.119491 -3.442610 0.000000
v 0.437383 -3.374670 0.000000
v 0.284811 -3.445770 0.000000
v 0.571285 -3.516260 0.000000
v -0.990923 -3.135840 0.000000
v -0.759373 -3.232690 0.000000
v -0.742051 -3.391530 0.000000
v -0.597630 -3.484570 0.000000
v 5.104420 -0.979397 0.000000
v 5.333514 -0.979397 0.000000
v 5.333514 -0.742540 0.000000
v 0.687264 -3.654380 0.000000
v 0.853878 -3.688900 0.000000
v 1.011440 -3.622340 0.000000
v 1.166320 -3.677400 0.000000
v 1.305790 -3.555890 0.000000
v 1.462240 -3.421190 0.000000
v 1.532950 -3.227390 0.000000
v 1.626520 -2.992140 0.000000
v -0.538607 -3.648010 0.000000
v -0.339448 -3.638600 0.000000
v -0.146267 -3.624440 0.000000
v 0.039823 -3.615240 0.000000
v 0.217481 -3.607150 0.000000
v 0.402374 -3.567030 0.000000
v 0.515714 -3.703700 0.000000
v -0.990923 -3.312690 0.000000
v -0.990923 -3.481460 0.000000
v -0.745030 -3.568280 0.000000
v 0.649990 -3.822140 0.000000
v 0.804205 -3.873280 0.000000
v 1.009070 -3.815970 0.000000
v 1.193380 -3.868970 0.000000
v 1.338390 -3.742440 0.000000
v 1.483130 -3.613530 0.000000
v 1.650840 -3.525510 0.000000
v 1.636510 -3.367160 0.000000
v 1.727160 -3.221890 0.000000
v 1.813100 -2.992140 0.000000
v -0.734054 -3.729810 0.000000
v -0.583644 -3.819570 0.000000
v -0.404474 -3.799260 0.000000
v -0.216040 -3.791690 0.000000
v -0.029357 -3.779760 0.000000
v 0.159136 -3.774870 0.000000
v 0.342061 -3.743210 0.000000
v 0.469692 -3.887930 0.000000
v -0.990923 -3.650440 0.000000
v 0.610294 -3.997890 0.000000
v 0.770455 -4.073360 0.000000
v 0.926664 -3.982160 0.000000
v 1.085230 -4.017830 0.000000
v 1.247860 -4.072210 0.000000
v 1.370500 -3.931160 0.000000
v 1.507370 -3.808170 0.000000
v 1.657860 -3.699280 0.000000
v 1.826380 -3.595550 0.000000
v 1.818660 -3.405480 0.000000
v 1.903950 -3.219590 0.000000
v 2.001810 -2.992140 0.000000
v -0.990923 -3.818680 0.000000
v -0.763180 -3.904870 0.000000
v -0.455469 -3.971550 0.000000
v -0.619872 -3.988940 0.000000
v -0.276851 -3.957430 0.000000
v -0.092926 -3.946630 0.000000
v 0.095421 -3.935990 0.000000
v 0.290986 -3.918730 0.000000
v 0.420536 -4.077390 0.000000
v 0.613652 -4.178140 0.000000
v 0.773171 -4.269280 0.000000
v 0.939386 -4.161460 0.000000
v 1.117010 -4.213870 0.000000
v 1.299330 -4.263830 0.000000
v 1.420660 -4.112830 0.000000
v 1.554530 -3.997190 0.000000
v 1.675110 -3.883600 0.000000
v 1.817510 -3.787920 0.000000
v 1.982000 -3.714020 0.000000
v 1.997070 -3.526140 0.000000
v 1.996720 -3.364530 0.000000
v 2.096100 -3.221960 0.000000
v 2.188040 -2.992140 0.000000
v -0.990923 -3.999420 0.000000
v -0.753166 -4.094320 0.000000
v -0.559177 -4.145740 0.000000
v -0.364567 -4.124870 0.000000
v -0.173359 -4.114540 0.000000
v 0.019590 -4.096530 0.000000
v 0.222898 -4.082860 0.000000
v 0.308626 -4.249040 0.000000
v 0.479546 -4.262390 0.000000
v 0.622041 -4.395190 0.000000
v 0.812148 -4.454440 0.000000
v 0.951326 -4.340300 0.000000
v 1.110210 -4.398350 0.000000
v 1.449880 -4.423010 0.000000
v 1.494040 -4.264380 0.000000
v 1.273780 -4.434580 0.000000
v 1.631900 -4.152450 0.000000
v 1.788570 -4.016260 0.000000
v 1.952350 -3.910510 0.000000
v 2.131040 -3.816380 0.000000
v 2.141830 -3.620390 0.000000
v 2.174430 -3.407080 0.000000
v 2.276590 -3.237130 0.000000
v 2.370370 -2.992140 0.000000
v -0.990923 -4.180240 0.000000
v -0.764666 -4.261070 0.000000
v -0.611794 -4.305840 0.000000
v -0.434851 -4.291080 0.000000
v -0.252324 -4.278810 0.000000
v -0.064094 -4.264230 0.000000
v 0.122847 -4.245190 0.000000
v 0.232382 -4.411440 0.000000
v 0.419814 -4.418590 0.000000
v 0.529145 -4.568620 0.000000
v 0.706821 -4.577330 0.000000
v 0.837477 -4.701840 0.000000
v 0.966393 -4.545020 0.000000
v 1.153520 -4.580280 0.000000
v 1.354320 -4.588830 0.000000
v 1.551590 -4.562620 0.000000
v 1.646390 -4.367300 0.000000
v 1.791220 -4.208930 0.000000
v 1.965850 -4.094000 0.000000
v 2.129740 -4.002480 0.000000
v 2.297430 -3.903130 0.000000
v 2.301950 -3.717630 0.000000
v 2.292870 -3.542700 0.000000
v 2.381660 -3.396060 0.000000
v 2.462940 -3.222990 0.000000
v 2.561550 -2.992140 0.000000
v -0.990923 -4.360460 0.000000
v -0.733422 -4.445200 0.000000
v -0.534724 -4.457310 0.000000
v -0.344394 -4.445150 0.000000
v -0.150448 -4.428770 0.000000
v 0.045186 -4.413850 0.000000
v 0.146405 -4.572200 0.000000
v 0.332297 -4.578570 0.000000
v 0.433657 -4.732710 0.000000
v 0.631235 -4.737370 0.000000
v 0.710442 -4.961518 0.000000
v 0.876593 -4.961518 0.000000
v 1.033610 -4.724900 0.000000
v 1.243530 -4.737430 0.000000
v 1.454060 -4.732580 0.000000
v 1.642540 -4.726860 0.000000
v 1.730040 -4.550370 0.000000
v 1.827680 -4.394670 0.000000
v 1.960850 -4.263150 0.000000
v 2.135530 -4.202650 0.000000
v 2.295590 -4.095220 0.000000
v 2.458120 -3.988780 0.000000
v 2.459630 -3.787950 0.000000
v 2.467660 -3.579510 0.000000
v 2.561800 -3.388690 0.000000
v 2.652930 -3.218840 0.000000
v 2.754940 -2.992140 0.000000
v -0.990923 -4.529560 0.000000
v -0.783731 -4.612430 0.000000
v -0.620805 -4.610570 0.000000
v -0.433018 -4.608920 0.000000
v -0.239318 -4.589720 0.000000
v -0.043431 -4.578740 0.000000
v 0.050375 -4.737690 0.000000
v 0.238569 -4.738120 0.000000
v 0.335341 -4.961518 0.000000
v 0.522397 -4.961518 0.000000
v 1.038260 -4.961518 0.000000
v 1.202220 -4.961518 0.000000
v 1.375580 -4.961518 0.000000
v 1.554920 -4.961518 0.000000
v 1.735490 -4.961518 0.000000
v 1.824890 -4.720950 0.000000
v 1.920500 -4.559960 0.000000
v 2.022010 -4.409620 0.000000
v 2.188900 -4.387420 0.000000
v 2.317800 -4.285300 0.000000
v 2.467120 -4.181870 0.000000
v 2.624700 -4.076950 0.000000
v 2.618770 -3.889320 0.000000
v 2.620870 -3.706630 0.000000
v 2.653090 -3.546430 0.000000
v 2.746610 -3.386210 0.000000
v 2.838190 -3.221610 0.000000
v 2.947160 -2.992140 0.000000
v -0.990923 -4.729500 0.000000
v -0.741090 -4.773800 0.000000
v -0.542457 -4.765110 0.000000
v -0.335743 -4.753370 0.000000
v -0.140659 -4.741940 0.000000
v -0.050381 -4.961518 0.000000
v 0.142297 -4.961518 0.000000
v 1.913340 -4.961518 0.000000
v 2.009820 -4.723160 0.000000
v 2.120020 -4.561680 0.000000
v 2.314060 -4.521690 0.000000
v 2.464850 -4.386450 0.000000
v 2.624030 -4.273760 0.000000
v 2.786470 -4.149250 0.000000
v 2.785600 -3.957170 0.000000
v 2.782410 -3.761550 0.000000
v 2.826400 -3.560110 0.000000
v 2.931980 -3.390840 0.000000
v 3.027300 -3.220970 0.000000
v 3.137010 -2.992140 0.000000
v -0.990923 -4.961518 0.000000
v -0.666647 -4.961518 0.000000
v -0.450136 -4.961518 0.000000
v -0.246300 -4.961518 0.000000
v 2.090539 -4.961518 0.000000
v 2.193090 -4.716680 0.000000
v 2.361510 -4.709300 0.000000
v 2.500730 -4.571110 0.000000
v 2.644700 -4.468260 0.000000
v 2.790780 -4.339160 0.000000
v 2.951880 -4.217800 0.000000
v 2.951980 -4.037230 0.000000
v 2.949580 -3.854370 0.000000
v 2.945360 -3.681410 0.000000
v 3.038390 -3.534060 0.000000
v 3.128550 -3.368810 0.000000
v 3.226860 -3.213650 0.000000
v 3.334220 -2.992140 0.000000
v 2.263449 -4.961518 0.000000
v 2.432549 -4.961518 0.000000
v 2.530299 -4.743250 0.000000
v 2.684480 -4.677990 0.000000
v 2.810530 -4.531300 0.000000
v 2.961350 -4.397780 0.000000
v 3.119210 -4.274800 0.000000
v 3.120230 -4.094440 0.000000
v 3.115570 -3.906440 0.000000
v 3.119510 -3.714170 0.000000
v 3.221610 -3.520740 0.000000
v 3.326410 -3.370950 0.000000
v 3.422000 -3.201460 0.000000
v 3.538910 -2.992140 0.000000
v 2.612520 -4.961518 0.000000
v 2.766969 -4.961518 0.000000
v 2.856840 -4.720740 0.000000
v 2.981240 -4.573030 0.000000
v 3.139590 -4.451810 0.000000
v 3.286400 -4.363640 0.000000
v 3.285960 -4.182600 0.000000
v 3.281540 -3.999660 0.000000
v 3.282160 -3.822220 0.000000
v 3.298640 -3.656510 0.000000
v 3.435290 -3.524460 0.000000
v 3.513380 -3.340280 0.000000
v 3.636460 -3.207250 0.000000
v 3.741200 -2.992140 0.000000
v 2.933439 -4.961518 0.000000
v 3.039289 -4.742020 0.000000
v 3.155500 -4.611010 0.000000
v 3.326870 -4.561551 0.000000
v 3.455490 -4.260651 0.000000
v 3.442760 -4.425420 0.000000
v 3.444670 -4.077930 0.000000
v 3.447750 -3.897600 0.000000
v 3.457490 -3.712910 0.000000
v 3.620100 -3.624310 0.000000
v 3.613450 -3.459040 0.000000
v 3.749170 -3.344660 0.000000
v 3.848330 -3.206000 0.000000
v 3.945260 -2.992140 0.000000
v 3.107700 -4.961518 0.000000
v 3.243410 -4.748110 0.000000
v 3.425580 -4.724811 0.000000
v 3.521950 -4.570691 0.000000
v 3.614280 -4.386170 0.000000
v 3.601790 -4.167661 0.000000
v 3.614580 -3.987400 0.000000
v 3.610840 -3.801210 0.000000
v 3.789940 -3.699020 0.000000
v 3.784050 -3.516430 0.000000
v 3.945030 -3.378020 0.000000
v 4.038790 -3.212020 0.000000
v 4.138000 -2.992140 0.000000
v 3.274169 -4.961518 0.000000
v 3.429480 -4.961518 0.000000
v 3.580230 -4.961518 0.000000
v 3.613660 -4.729490 0.000000
v 3.702210 -4.557961 0.000000
v 3.807200 -4.410881 0.000000
v 3.732780 -4.258171 0.000000
v 3.782270 -4.079451 0.000000
v 3.763010 -3.878240 0.000000
v 3.943020 -3.569990 0.000000
v 3.953180 -3.775740 0.000000
v 4.111430 -3.481100 0.000000
v 4.168499 -3.324410 0.000000
v 4.255799 -3.180840 0.000000
v 4.343800 -2.992140 0.000000
v 3.738369 -4.961518 0.000000
v 3.793960 -4.720790 0.000000
v 3.894810 -4.562020 0.000000
v 3.989480 -4.398681 0.000000
v 3.898770 -4.236620 0.000000
v 3.989220 -4.086851 0.000000
v 3.907110 -3.945350 0.000000
v 4.080689 -3.658360 0.000000
v 4.082459 -3.918060 0.000000
v 4.178180 -3.783550 0.000000
v 4.251220 -3.611850 0.000000
v 4.308100 -3.442740 0.000000
v 4.389699 -3.282520 0.000000
v 4.481370 -2.992140 0.000000
v 3.898570 -4.961518 0.000000
v 3.974310 -4.727760 0.000000
v 4.074979 -4.565061 0.000000
v 4.171929 -4.400600 0.000000
v 4.084179 -4.240571 0.000000
v 4.172019 -4.077920 0.000000
v 4.280159 -3.926100 0.000000
v 4.356390 -3.764610 0.000000
v 4.429550 -3.585990 0.000000
v 4.504630 -3.430930 0.000000
v 4.575130 -3.253280 0.000000
v 4.634300 -2.992140 0.000000
v 4.066450 -4.961518 0.000000
v 4.154250 -4.728401 0.000000
v 4.256539 -4.562671 0.000000
v 4.356450 -4.401131 0.000000
v 4.267250 -4.237121 0.000000
v 4.356969 -4.077301 0.000000
v 4.475060 -3.913170 0.000000
v 4.522089 -3.727080 0.000000
v 4.630730 -3.589470 0.000000
v 4.679570 -3.403070 0.000000
v 4.748889 -3.209010 0.000000
v 4.836900 -2.992140 0.000000
v 4.237209 -4.961518 0.000000
v 4.329549 -4.727030 0.000000
v 4.439189 -4.557500 0.000000
v 4.547470 -4.391110 0.000000
v 4.449629 -4.244750 0.000000
v 4.520659 -4.087700 0.000000
v 4.653520 -4.002161 0.000000
v 4.647510 -3.818980 0.000000
v 4.784629 -3.706630 0.000000
v 4.807730 -3.526120 0.000000
v 4.845819 -3.342440 0.000000
v 4.956999 -3.214591 0.000000
v 5.039040 -2.992140 0.000000
v 4.405710 -4.961518 0.000000
v 4.500100 -4.722021 0.000000
v 4.619649 -4.553730 0.000000
v 4.730440 -4.396010 0.000000
v 4.638999 -4.216130 0.000000
v 4.802209 -4.088861 0.000000
v 4.802569 -3.900990 0.000000
v 4.951109 -3.803340 0.000000
v 4.959750 -3.623190 0.000000
v 4.970290 -3.439861 0.000000
v 5.111040 -3.343081 0.000000
v 5.135900 -3.176301 0.000000
v 5.333514 -2.992140 0.000000
v 4.565909 -4.961518 0.000000
v 4.665110 -4.719670 0.000000
v 4.799910 -4.541760 0.000000
v 4.940219 -4.363630 0.000000
v 4.805789 -4.254180 0.000000
v 4.969019 -4.185240 0.000000
v 4.958119 -3.993091 0.000000
v 5.115970 -3.880291 0.000000
v 5.121399 -3.703171 0.000000
v 5.124509 -3.522390 0.000000
v 5.333514 -3.422920 0.000000
v 5.333514 -3.239161 0.000000
v 4.722040 -4.961518 0.000000
v 4.824019 -4.711541 0.000000
v 4.964789 -4.539811 0.000000
v 5.116089 -4.420510 0.000000
v 5.135690 -4.246370 0.000000
v 5.121850 -4.063210 0.000000
v 5.333514 -3.973751 0.000000
v 5.333514 -3.793380 0.000000
v 5.333514 -3.608810 0.000000
v 4.869309 -4.961518 0.000000
v 4.983089 -4.716140 0.000000
v 5.128399 -4.597610 0.000000
v 5.333514 -4.517870 0.000000
v 5.333514 -4.341311 0.000000
v 5.333514 -4.151600 0.000000
v 5.010260 -4.961518 0.000000
v 5.142700 -4.764610 0.000000
v 5.333514 -4.689450 0.000000
v 5.171549 -4.961518 0.000000
v 5.333514 -4.961518 0.000000
s 0
f 3 4 1
f 1 4 2
f 1 6 3
f 5 6 1
f 4 7 2
f 6 8 3
f 3 9 4
f 8 9 3
f 9 10 4
f 10 11 4
f 4 11 7
f 5 12 6
f 12 13 6
f 6 14 8
f 13 14 6
f 11 15 7
f 8 16 9
f 8 17 16
f 14 17 8
f 9 18 10
f 16 18 9
f 18 19 10
f 19 20 10
f 10 20 11
f 20 21 11
f 11 21 15
f 12 22 13
f 13 23 14
f 13 24 23
f 22 24 13
f 14 25 17
f 23 25 14
f 21 26 15
f 16 27 18
f 16 28 27
f 17 28 16
f 17 29 28
f 25 29 17
f 27 30 18
f 18 30 19
f 19 31 20
f 30 31 19
f 20 32 21
f 31 32 20
f 21 33 26
f 32 33 21
f 22 34 24
f 24 35 23
f 23 36 25
f 35 36 23
f 34 37 24
f 24 37 35
f 25 38 29
f 36 38 25
f 33 39 26
f 27 40 30
f 27 41 40
f 28 41 27
f 28 42 41
f 29 42 28
f 29 43 42
f 38 43 29
f 40 44 30
f 44 45 30
f 30 45 31
f 45 46 31
f 31 46 32
f 46 47 32
f 32 47 33
f 33 48 39
f 47 48 33
f 34 49 37
f 37 50 35
f 35 51 36
f 50 51 35
f 36 52 38
f 51 52 36
f 37 53 50
f 49 53 37
f 38 54 43
f 52 54 38
f 48 55 39
f 40 56 44
f 41 57 40
f 40 58 56
f 57 58 40
f 41 59 57
f 42 59 41
f 42 60 59
f 43 60 42
f 43 61 60
f 54 61 43
f 56 62 44
f 44 63 45
f 62 63 44
f 63 64 45
f 45 64 46
f 64 65 46
f 46 65 47
f 65 66 47
f 47 66 48
f 48 67 55
f 66 67 48
f 49 68 53
f 53 69 50
f 68 69 53
f 69 70 50
f 50 71 51
f 70 71 50
f 51 72 52
f 71 72 51
f 52 73 54
f 72 73 52
f 54 74 61
f 73 74 54
f 67 75 55
f 58 76 56
f 56 77 62
f 76 77 56
f 59 78 57
f 58 79 76
f 57 79 58
f 78 79 57
f 59 80 78
f 60 80 59
f 60 81 80
f 61 81 60
f 61 82 81
f 74 82 61
f 77 83 62
f 63 84 64
f 62 84 63
f 83 84 62
f 64 85 65
f 84 85 64
f 85 86 65
f 65 87 66
f 86 87 65
f 87 88 66
f 66 88 67
f 88 89 67
f 67 89 75
f 68 90 69
f 69 91 70
f 90 91 69
f 91 92 70
f 70 93 71
f 92 93 70
f 71 94 72
f 93 94 71
f 72 95 73
f 94 95 72
f 73 96 74
f 95 96 73
f 74 97 82
f 96 97 74
f 89 98 75
f 76 99 77
f 76 100 99
f 79 100 76
f 77 101 83
f 99 101 77
f 80 102 78
f 79 103 100
f 78 103 79
f 102 103 78
f 80 104 102
f 81 104 80
f 81 105 104
f 82 105 81
f 82 106 105
f 97 106 82
f 101 107 83
f 83 108 84
f 107 108 83
f 85 109 86
f 84 109 85
f 108 109 84
f 109 110 86
f 86 111 87
f 110 111 86
f 111 112 87
f 87 112 88
f 88 113 89
f 112 113 88
f 89 114 98
f 113 114 89
f 90 115 91
f 91 116 92
f 115 116 91
f 92 117 93
f 92 118 117
f 116 118 92
f 93 119 94
f 117 119 93
f 95 120 96
f 94 120 95
f 119 120 94
f 96 121 97
f 120 121 96
f 97 122 106
f 121 122 97
f 114 123 98
f 99 124 101
f 99 125 124
f 100 125 99
f 100 126 125
f 103 126 100
f 101 127 107
f 124 127 101
f 103 128 126
f 102 128 103
f 102 129 128
f 104 129 102
f 104 130 129
f 105 130 104
f 105 131 130
f 106 131 105
f 122 132 106
f 106 133 131
f 132 133 106
f 127 134 107
f 107 135 108
f 134 135 107
f 109 136 110
f 108 136 109
f 135 136 108
f 110 137 111
f 136 137 110
f 111 138 112
f 137 138 111
f 112 139 113
f 138 139 112
f 139 140 113
f 113 140 114
f 114 141 123
f 140 141 114
f 115 142 116
f 116 143 118
f 142 143 116
f 118 144 117
f 117 145 119
f 144 145 117
f 118 146 144
f 143 146 118
f 119 147 120
f 145 147 119
f 120 148 121
f 147 148 120
f 121 149 122
f 148 149 121
f 149 150 122
f 122 150 132
f 141 151 123
f 125 152 124
f 124 153 127
f 152 153 124
f 125 154 152
f 126 154 125
f 126 155 154
f 128 155 126
f 127 156 134
f 153 156 127
f 128 157 155
f 129 157 128
f 129 158 157
f 130 158 129
f 130 159 158
f 131 159 130
f 133 159 131
f 150 160 132
f 132 161 133
f 160 161 132
f 133 162 159
f 161 162 133
f 156 163 134
f 134 164 135
f 163 164 134
f 135 165 136
f 164 165 135
f 136 166 137
f 165 166 136
f 137 167 138
f 166 167 137
f 167 168 138
f 138 168 139
f 139 169 140
f 168 169 139
f 140 170 141
f 169 170 140
f 141 171 151
f 170 171 141
f 142 172 143
f 143 173 146
f 143 174 173
f 172 174 143
f 146 175 144
f 173 175 146
f 175 176 144
f 144 177 145
f 176 177 144
f 145 178 147
f 177 178 145
f 147 179 148
f 178 179 147
f 148 180 149
f 179 180 148
f 150 181 160
f 149 181 150
f 180 181 149
f 171 182 151
f 152 183 153
f 152 184 183
f 154 184 152
f 153 185 156
f 183 185 153
f 154 186 184
f 155 186 154
f 155 187 186
f 157 187 155
f 156 188 163
f 185 188 156
f 157 189 187
f 158 189 157
f 158 190 189
f 158 191 190
f 159 191 158
f 162 191 159
f 160 192 161
f 160 193 192
f 181 193 160
f 161 194 162
f 192 194 161
f 162 195 191
f 194 195 162
f 188 196 163
f 196 197 163
f 163 197 164
f 197 198 164
f 164 198 165
f 198 199 165
f 166 199 167
f 165 199 166
f 199 200 167
f 200 201 167
f 167 201 168
f 201 202 168
f 169 202 170
f 168 202 169
f 202 203 170
f 170 204 171
f 203 204 170
f 204 205 171
f 171 205 182
f 172 206 174
f 174 207 173
f 206 207 174
f 173 208 175
f 207 208 173
f 175 209 176
f 208 209 175
f 209 210 176
f 176 211 177
f 210 211 176
f 178 212 179
f 177 212 178
f 211 212 177
f 179 213 180
f 212 213 179
f 180 214 181
f 213 214 180
f 181 215 193
f 214 215 181
f 205 216 182
f 184 217 183
f 183 218 185
f 217 218 183
f 184 219 217
f 186 219 184
f 185 220 188
f 218 220 185
f 186 221 219
f 187 221 186
f 187 222 221
f 189 222 187
f 188 223 196
f 220 223 188
f 189 224 222
f 190 224 189
f 191 225 190
f 195 225 191
f 190 226 224
f 225 226 190
f 193 227 192
f 192 228 194
f 227 228 192
f 193 229 227
f 215 229 193
f 228 230 194
f 195 231 225
f 194 231 195
f 230 231 194
f 223 232 196
f 232 233 196
f 196 233 197
f 197 234 198
f 233 234 197
f 198 235 199
f 234 235 198
f 199 236 200
f 235 236 199
f 236 237 200
f 200 238 201
f 237 238 200
f 238 239 201
f 202 239 203
f 201 239 202
f 239 240 203
f 203 241 204
f 240 241 203
f 204 242 205
f 241 242 204
f 205 243 216
f 242 243 205
f 206 244 207
f 207 245 208
f 244 245 207
f 208 246 209
f 245 246 208
f 209 247 210
f 246 247 209
f 247 248 210
f 210 249 211
f 248 249 210
f 212 250 213
f 211 250 212
f 249 250 211
f 250 251 213
f 213 252 214
f 251 252 213
f 214 253 215
f 252 253 214
f 215 254 229
f 253 254 215
f 243 255 216
f 220 256 223
f 218 256 220
f 223 257 232
f 256 257 223
f 226 258 224
f 231 259 225
f 259 260 225
f 225 260 226
f 226 261 258
f 260 261 226
f 229 262 227
f 227 263 228
f 262 263 227
f 228 264 230
f 263 264 228
f 229 265 262
f 254 265 229
f 264 266 230
f 230 267 231
f 266 267 230
f 231 267 259
f 257 268 232
f 232 269 233
f 268 269 232
f 269 270 233
f 233 270 234
f 234 271 235
f 270 271 234
f 271 272 235
f 236 272 237
f 235 272 236
f 272 273 237
f 237 274 238
f 273 274 237
f 274 275 238
f 239 275 240
f 238 275 239
f 275 276 240
f 274 276 275
f 276 277 240
f 240 278 241
f 277 278 240
f 278 279 241
f 242 279 243
f 241 279 242
f 243 280 255
f 279 280 243
f 248 281 249
f 250 282 251
f 249 282 250
f 281 282 249
f 282 283 251
f 283 284 251
f 252 284 253
f 251 284 252
f 253 285 254
f 284 285 253
f 285 286 254
f 254 287 265
f 286 287 254
f 280 288 255
f 261 289 258
f 267 290 259
f 260 291 261
f 259 291 260
f 290 291 259
f 261 292 289
f 291 292 261
f 265 293 262
f 287 293 265
f 262 294 263
f 293 294 262
f 263 295 264
f 294 295 263
f 295 296 264
f 264 296 266
f 296 297 266
f 266 298 267
f 297 298 266
f 267 298 290
f 268 299 269
f 269 300 270
f 299 300 269
f 300 301 270
f 270 301 271
f 301 302 271
f 272 302 273
f 271 302 272
f 302 303 273
f 273 304 274
f 303 304 273
f 274 305 276
f 304 305 274
f 276 306 277
f 305 306 276
f 306 307 277
f 278 308 279
f 277 308 278
f 307 308 277
f 279 309 280
f 308 309 279
f 280 310 288
f 309 310 280
f 282 311 283
f 281 311 282
f 311 312 283
f 284 313 285
f 283 313 284
f 312 313 283
f 285 314 286
f 313 314 285
f 286 315 287
f 314 315 286
f 287 316 293
f 315 316 287
f 310 317 288
f 292 318 289
f 298 319 290
f 297 319 298
f 319 320 290
f 290 321 291
f 320 321 290
f 291 321 292
f 292 322 318
f 321 322 292
f 316 323 293
f 293 324 294
f 323 324 293
f 294 325 295
f 324 325 294
f 295 326 296
f 325 326 295
f 296 327 297
f 326 327 296
f 297 328 319
f 327 328 297
f 299 329 300
f 300 330 301
f 329 330 300
f 330 331 301
f 302 331 303
f 301 331 302
f 331 332 303
f 303 333 304
f 332 333 303
f 304 334 305
f 333 334 304
f 334 335 305
f 305 335 306
f 306 336 307
f 335 336 306
f 307 337 308
f 336 337 307
f 308 338 309
f 337 338 308
f 338 339 309
f 309 339 310
f 310 340 317
f 339 340 310
f 313 341 314
f 312 341 313
f 314 342 315
f 341 342 314
f 342 343 315
f 315 344 316
f 343 344 315
f 316 344 323
f 340 345 317
f 322 346 318
f 328 347 319
f 319 348 320
f 347 348 319
f 348 349 320
f 321 349 322
f 320 349 321
f 322 350 346
f 349 350 322
f 344 351 323
f 323 352 324
f 351 352 323
f 352 353 324
f 324 353 325
f 353 354 325
f 326 354 327
f 325 354 326
f 327 355 328
f 354 355 327
f 328 356 347
f 355 356 328
f 329 357 330
f 331 358 332
f 330 358 331
f 357 358 330
f 358 359 332
f 332 360 333
f 359 360 332
f 333 361 334
f 360 361 333
f 334 362 335
f 361 362 334
f 362 363 335
f 335 363 336
f 336 364 337
f 363 364 336
f 364 365 337
f 337 366 338
f 365 366 337
f 366 367 338
f 339 367 340
f 338 367 339
f 367 368 340
f 340 369 345
f 368 369 340
f 344 370 351
f 343 370 344
f 369 371 345
f 350 372 346
f 356 373 347
f 347 374 348
f 373 374 347
f 348 375 349
f 374 375 348
f 349 376 350
f 375 376 349
f 350 377 372
f 376 377 350
f 370 378 351
f 351 379 352
f 378 379 351
f 352 380 353
f 379 380 352
f 353 381 354
f 380 381 353
f 381 382 354
f 354 382 355
f 355 383 356
f 382 383 355
f 356 384 373
f 383 384 356
f 358 385 359
f 357 385 358
f 385 386 359
f 359 387 360
f 386 387 359
f 360 388 361
f 387 388 360
f 361 389 362
f 388 389 361
f 362 390 363
f 389 390 362
f 390 391 363
f 364 392 365
f 363 392 364
f 391 392 363
f 392 393 365
f 365 394 366
f 393 394 365
f 367 395 368
f 366 395 367
f 394 395 366
f 395 396 368
f 396 397 368
f 369 397 371
f 368 397 369
f 397 398 371
f 377 399 372
f 384 400 373
f 373 401 374
f 400 401 373
f 374 402 375
f 401 402 374
f 376 403 377
f 375 403 376
f 402 403 375
f 377 404 399
f 403 404 377
f 378 405 379
f 379 406 380
f 405 406 379
f 380 407 381
f 406 407 380
f 381 408 382
f 407 408 381
f 382 409 383
f 408 409 382
f 409 410 383
f 410 411 383
f 383 411 384
f 384 411 400
f 386 412 387
f 412 413 387
f 387 413 388
f 388 414 389
f 413 414 388
f 414 415 389
f 389 415 390
f 415 416 390
f 390 416 391
f 392 417 393
f 391 417 392
f 416 417 391
f 393 418 394
f 393 419 418
f 417 419 393
f 395 420 396
f 394 420 395
f 418 420 394
f 420 421 396
f 396 422 397
f 421 422 396
f 397 423 398
f 422 423 397
f 423 424 398
f 404 425 399
f 411 426 400
f 426 427 400
f 400 427 401
f 427 428 401
f 401 428 402
f 403 429 404
f 402 429 403
f 428 429 402
f 404 430 425
f 429 430 404
f 405 431 406
f 406 432 407
f 431 432 406
f 432 433 407
f 407 433 408
f 433 434 408
f 409 434 410
f 408 434 409
f 434 435 410
f 410 436 411
f 435 436 410
f 411 436 426
f 412 437 413
f 437 438 413
f 413 438 414
f 414 439 415
f 438 439 414
f 415 440 416
f 439 440 415
f 440 441 416
f 416 442 417
f 441 442 416
f 417 443 419
f 442 443 417
f 419 444 418
f 443 444 419
f 420 445 421
f 418 445 420
f 444 445 418
f 422 446 423
f 421 446 422
f 421 447 446
f 445 447 421
f 423 448 424
f 446 448 423
f 448 449 424
f 430 450 425
f 436 451 426
f 451 452 426
f 426 452 427
f 427 453 428
f 452 453 427
f 428 454 429
f 453 454 428
f 429 455 430
f 454 455 429
f 430 456 450
f 455 456 430
f 431 457 432
f 432 458 433
f 457 458 432
f 433 459 434
f 458 459 433
f 459 460 434
f 434 460 435
f 460 461 435
f 436 462 451
f 435 462 436
f 461 462 435
f 437 463 438
f 439 464 440
f 438 464 439
f 463 464 438
f 440 465 441
f 464 465 440
f 465 466 441
f 441 466 442
f 442 467 443
f 466 467 442
f 443 468 444
f 467 468 443
f 444 469 445
f 468 469 444
f 445 470 447
f 469 470 445
f 447 471 446
f 470 471 447
f 471 472 446
f 446 472 448
f 448 473 449
f 472 473 448
f 473 474 449
f 456 475 450
f 462 476 451
f 476 477 451
f 451 477 452
f 452 478 453
f 477 478 452
f 453 479 454
f 478 479 453
f 455 480 456
f 454 480 455
f 479 480 454
f 456 481 475
f 480 481 456
f 457 482 458
f 458 483 459
f 482 483 458
f 459 484 460
f 483 484 459
f 484 485 460
f 460 485 461
f 485 486 461
f 462 487 476
f 461 487 462
f 486 487 461
f 463 488 464
f 488 489 464
f 464 490 465
f 489 490 464
f 490 491 465
f 465 491 466
f 466 492 467
f 491 492 466
f 467 493 468
f 492 493 467
f 468 494 469
f 493 494 468
f 469 495 470
f 494 495 469
f 470 496 471
f 495 496 470
f 471 497 472
f 496 497 471
f 472 498 473
f 497 498 472
f 473 499 474
f 498 499 473
f 499 500 474
f 481 501 475
f 487 502 476
f 476 503 477
f 502 503 476
f 503 504 477
f 477 504 478
f 478 505 479
f 504 505 478
f 479 506 480
f 505 506 479
f 480 507 481
f 506 507 480
f 481 508 501
f 507 508 481
f 482 509 483
f 509 510 483
f 483 510 484
f 510 511 484
f 485 511 486
f 484 511 485
f 511 512 486
f 487 513 502
f 486 513 487
f 512 513 486
f 489 514 490
f 490 515 491
f 514 515 490
f 515 516 491
f 491 516 492
f 492 517 493
f 516 517 492
f 493 518 494
f 517 518 493
f 494 519 495
f 518 519 494
f 495 520 496
f 519 520 495
f 497 521 498
f 496 521 497
f 520 521 496
f 521 522 498
f 498 523 499
f 522 523 498
f 499 524 500
f 523 524 499
f 524 525 500
f 508 526 501
f 502 527 503
f 502 528 527
f 513 528 502
f 504 529 505
f 503 529 504
f 527 529 503
f 529 530 505
f 505 531 506
f 530 531 505
f 507 532 508
f 506 532 507
f 531 532 506
f 508 533 526
f 532 533 508
f 509 534 510
f 534 535 510
f 511 535 512
f 510 535 511
f 512 536 513
f 512 537 536
f 535 537 512
f 513 538 528
f 536 538 513
f 514 539 515
f 539 540 515
f 515 540 516
f 516 541 517
f 540 541 516
f 517 542 518
f 541 542 517
f 542 543 518
f 518 544 519
f 543 544 518
f 519 545 520
f 544 545 519
f 545 546 520
f 521 546 522
f 520 546 521
f 546 547 522
f 522 548 523
f 547 548 522
f 523 549 524
f 548 549 523
f 524 550 525
f 549 550 524
f 533 551 526
f 551 552 526
f 529 553 530
f 527 553 529
f 527 554 553
f 528 554 527
f 538 555 528
f 528 555 554
f 553 556 530
f 530 557 531
f 556 557 530
f 531 558 532
f 557 558 531
f 532 558 533
f 533 559 551
f 558 559 533
f 535 560 537
f 534 560 535
f 537 561 536
f 536 562 538
f 561 562 536
f 537 563 561
f 560 563 537
f 562 564 538
f 538 564 555
f 539 565 540
f 565 566 540
f 540 566 541
f 566 567 541
f 541 567 542
f 542 568 543
f 567 568 542
f 543 569 544
f 568 569 543
f 544 570 545
f 569 570 544
f 570 571 545
f 546 571 547
f 545 571 546
f 571 572 547
f 547 573 548
f 572 573 547
f 559 574 551
f 574 575 551
f 551 575 552
f 575 576 552
f 576 577 552
f 553 578 556
f 554 578 553
f 555 579 554
f 554 579 578
f 555 580 579
f 564 580 555
f 578 581 556
f 579 581 578
f 556 582 557
f 581 582 556
f 582 583 557
f 558 583 559
f 557 583 558
f 583 584 559
f 559 584 574
f 563 585 561
f 585 586 561
f 561 586 562
f 586 587 562
f 562 587 564
f 564 588 580
f 587 588 564
f 565 589 566
f 589 590 566
f 566 590 567
f 567 591 568
f 590 591 567
f 591 592 568
f 568 593 569
f 592 593 568
f 569 594 570
f 593 594 569
f 571 595 572
f 570 595 571
f 594 595 570
f 584 596 574
f 574 597 575
f 596 597 574
f 575 598 576
f 597 598 575
f 598 599 576
f 576 600 577
f 599 600 576
f 600 601 577
f 579 602 581
f 580 602 579
f 588 603 580
f 603 604 580
f 580 604 602
f 602 605 581
f 604 605 602
f 581 606 582
f 605 606 581
f 583 607 584
f 582 607 583
f 582 608 607
f 606 608 582
f 607 609 584
f 584 609 596
f 585 610 586
f 610 611 586
f 587 611 588
f 586 611 587
f 611 612 588
f 612 613 588
f 588 613 603
f 589 614 590
f 590 615 591
f 614 615 590
f 591 616 592
f 615 616 591
f 609 617 596
f 596 618 597
f 617 618 596
f 618 619 597
f 597 619 598
f 619 620 598
f 598 621 599
f 620 621 598
f 599 622 600
f 621 622 599
f 622 623 600
f 600 623 601
f 623 624 601
f 613 625 603
f 625 626 603
f 603 626 604
f 604 627 605
f 626 627 604
f 605 628 606
f 627 628 605
f 628 629 606
f 606 629 608
f 607 630 609
f 608 630 607
f 629 630 608
f 609 631 617
f 630 631 609
f 611 632 612
f 610 632 611
f 632 633 612
f 613 634 625
f 612 634 613
f 633 634 612
f 617 635 618
f 631 635 617
f 635 636 618
f 618 637 619
f 636 637 618
f 619 637 620
f 637 638 620
f 620 639 621
f 638 639 620
f 621 640 622
f 639 640 621
f 640 641 622
f 622 642 623
f 641 642 622
f 623 643 624
f 642 643 623
f 643 644 624
f 634 645 625
f 645 646 625
f 646 647 625
f 625 647 626
f 647 648 626
f 626 648 627
f 648 649 627
f 627 649 628
f 649 650 628
f 628 650 629
f 629 651 630
f 650 651 629
f 630 651 631
f 631 652 635
f 651 652 631
f 634 653 645
f 633 653 634
f 635 654 636
f 652 654 635
f 654 655 636
f 636 656 637
f 655 656 636
f 637 657 638
f 656 657 637
f 657 658 638
f 638 659 639
f 658 659 638
f 639 660 640
f 659 660 639
f 660 661 640
f 640 661 641
f 661 662 641
f 662 663 641
f 642 663 643
f 641 663 642
f 643 664 644
f 663 664 643
f 664 665 644
f 653 666 645
f 645 667 646
f 666 667 645
f 646 668 647
f 646 669 668
f 667 669 646
f 668 670 647
f 647 670 648
f 670 671 648
f 648 671 649
f 671 672 649
f 649 672 650
f 672 673 650
f 651 673 652
f 650 673 651
f 652 674 654
f 673 674 652
f 654 675 655
f 674 675 654
f 675 676 655
f 676 677 655
f 656 677 657
f 655 677 656
f 657 678 658
f 677 678 657
f 678 679 658
f 658 680 659
f 679 680 658
f 659 681 660
f 680 681 659
f 660 682 661
f 681 682 660
f 661 683 662
f 682 683 661
f 683 684 662
f 662 685 663
f 684 685 662
f 685 686 663
f 663 686 664
f 664 687 665
f 686 687 664
f 687 688 665
f 666 689 667
f 689 690 667
f 667 690 669
f 669 691 668
f 690 691 669
f 668 692 670
f 691 692 668
f 692 693 670
f 670 693 671
f 693 694 671
f 671 694 672
f 694 695 672
f 673 695 674
f 672 695 673
f 695 696 674
f 696 697 674
f 674 697 675
f 675 698 676
f 697 698 675
f 698 699 676
f 699 700 676
f 676 700 677
f 677 700 678
f 678 701 679
f 700 701 678
f 679 703 680
f 702 703 679
f 679 704 702
f 701 704 679
f 703 705 680
f 680 705 681
f 705 706 681
f 682 706 683
f 681 706 682
f 683 707 684
f 706 707 683
f 707 708 684
f 684 709 685
f 708 709 684
f 709 710 685
f 686 710 687
f 685 710 686
f 687 711 688
f 710 711 687
f 711 712 688
f 689 713 690
f 690 714 691
f 713 714 690
f 714 715 691
f 691 716 692
f 715 716 691
f 716 717 692
f 692 717 693
f 693 718 694
f 717 718 693
f 695 719 696
f 694 719 695
f 718 719 694
f 719 720 696
f 720 721 696
f 697 721 698
f 696 721 697
f 721 722 698
f 722 723 698
f 698 723 699
f 723 724 699
f 699 725 700
f 724 725 699
f 700 725 701
f 701 726 704
f 725 726 701
f 704 727 702
f 726 727 704
f 727 728 702
f 728 729 702
f 703 729 705
f 702 729 703
f 705 730 706
f 729 730 705
f 730 731 706
f 706 731 707
f 707 732 708
f 731 732 707
f 732 733 708
f 708 734 709
f 733 734 708
f 734 735 709
f 709 735 710
f 710 736 711
f 735 736 710
f 711 737 712
f 736 737 711
f 737 738 712
f 713 739 714
f 714 740 715
f 739 740 714
f 715 741 716
f 740 741 715
f 741 742 716
f 716 742 717
f 717 743 718
f 742 743 717
f 719 744 720
f 718 744 719
f 743 744 718
f 744 745 720
f 745 746 720
f 721 746 722
f 720 746 721
f 746 747 722
f 747 748 722
f 723 748 724
f 722 748 723
f 748 749 724
f 749 750 724
f 724 751 725
f 750 751 724
f 725 751 726
f 726 752 727
f 751 752 726
f 727 753 728
f 752 753 727
f 753 754 728
f 728 755 729
f 754 755 728
f 729 756 730
f 755 756 729
f 756 757 730
f 730 757 731
f 731 758 732
f 757 758 731
f 732 759 733
f 758 759 732
f 759 760 733
f 760 761 733
f 733 761 734
f 761 762 734
f 734 762 735
f 735 762 736
f 736 763 737
f 762 763 736
f 737 764 738
f 763 764 737
f 764 765 738
f 739 766 740
f 766 767 740
f 740 768 741
f 767 768 740
f 741 769 742
f 768 769 741
f 742 770 743
f 769 770 742
f 744 771 745
f 743 771 744
f 770 771 743
f 771 772 745
f 772 773 745
f 746 773 747
f 745 773 746
f 773 774 747
f 748 775 749
f 747 775 748
f 774 775 747
f 750 776 751
f 751 777 752
f 776 777 751
f 752 778 753
f 777 778 752
f 753 779 754
f 778 779 753
f 779 780 754
f 754 781 755
f 780 781 754
f 755 782 756
f 781 782 755
f 782 783 756
f 757 783 758
f 756 783 757
f 783 784 758
f 758 785 759
f 784 785 758
f 759 786 760
f 785 786 759
f 786 787 760
f 760 788 761
f 787 788 760
f 761 789 762
f 788 789 761
f 762 790 763
f 789 790 762
f 763 791 764
f 790 791 763
f 764 792 765
f 791 792 764
f 792 793 765
f 766 794 767
f 767 795 768
f 794 795 767
f 768 796 769
f 795 796 768
f 769 797 770
f 796 797 769
f 771 798 772
f 770 798 771
f 797 798 770
f 798 799 772
f 773 800 774
f 772 800 773
f 799 800 772
f 780 801 781
f 781 802 782
f 801 802 781
f 802 803 782
f 783 803 784
f 782 803 783
f 784 804 785
f 803 804 784
f 785 805 786
f 804 805 785
f 786 806 787
f 805 806 786
f 806 807 787
f 807 808 787
f 787 808 788
f 808 809 788
f 788 809 789
f 789 809 790
f 790 810 791
f 809 810 790
f 791 811 792
f 810 811 791
f 811 812 792
f 792 812 793
f 812 813 793
f 794 814 795
f 795 815 796
f 814 815 795
f 796 816 797
f 815 816 796
f 798 817 799
f 797 817 798
f 816 817 797
f 801 818 802
f 803 819 804
f 802 819 803
f 818 819 802
f 819 820 804
f 820 821 804
f 804 821 805
f 805 822 806
f 821 822 805
f 806 823 807
f 822 823 806
f 823 824 807
f 807 825 808
f 824 825 807
f 808 826 809
f 825 826 808
f 809 827 810
f 826 827 809
f 810 828 811
f 827 828 810
f 828 829 811
f 811 829 812
f 812 830 813
f 829 830 812
f 830 831 813
f 819 832 820
f 818 832 819
f 832 833 820
f 820 834 821
f 833 834 820
f 821 835 822
f 834 835 821
f 822 836 823
f 835 836 822
f 836 837 823
f 823 837 824
f 837 838 824
f 838 839 824
f 824 839 825
f 839 840 825
f 825 840 826
f 840 841 826
f 827 841 828
f 826 841 827
f 841 842 828
f 828 842 829
f 829 843 830
f 842 843 829
f 843 844 830
f 830 844 831
f 844 845 831
f 834 846 835
f 833 846 834
f 846 847 835
f 835 848 836
f 847 848 835
f 836 849 837
f 848 849 836
f 849 850 837
f 837 850 838
f 850 851 838
f 838 852 839
f 851 852 838
f 839 853 840
f 852 853 839
f 840 854 841
f 853 854 840
f 841 855 842
f 854 855 841
f 842 856 843
f 855 856 842
f 856 857 843
f 843 857 844
f 857 858 844
f 844 858 845
f 858 859 845
f 847 860 848
f 860 861 848
f 848 861 849
f 861 862 849
f 849 862 850
f 850 863 851
f 862 863 850
f 851 864 852
f 863 865 851
f 851 865 864
f 864 866 852
f 852 866 853
f 853 867 854
f 866 867 853
f 867 868 854
f 855 868 856
f 854 868 855
f 868 869 856
f 856 870 857
f 869 870 856
f 857 871 858
f 870 871 857
f 858 872 859
f 871 872 858
f 872 873 859
f 860 874 861
f 862 875 863
f 861 875 862
f 874 875 861
f 875 876 863
f 876 877 863
f 863 877 865
f 865 878 864
f 877 878 865
f 864 879 866
f 878 879 864
f 866 880 867
f 879 880 866
f 880 881 867
f 868 881 869
f 867 881 868
f 881 882 869
f 882 883 869
f 870 883 871
f 869 883 870
f 871 884 872
f 883 884 871
f 884 885 872
f 872 885 873
f 885 886 873
f 874 887 875
f 875 888 876
f 887 888 875
f 888 889 876
f 876 890 877
f 889 890 876
f 877 891 878
f 890 891 877
f 891 892 878
f 892 893 878
f 878 893 879
f 879 894 880
f 893 894 879
f 894 895 880
f 881 895 882
f 880 895 881
f 883 896 884
f 882 896 883
f 882 897 896
f 895 897 882
f 896 898 884
f 884 899 885
f 898 899 884
f 885 900 886
f 899 900 885
f 900 901 886
f 889 902 890
f 890 903 891
f 902 903 890
f 903 904 891
f 891 904 892
f 904 905 892
f 905 906 892
f 892 906 893
f 893 906 894
f 906 907 894
f 895 908 897
f 894 908 895
f 907 908 894
f 896 909 898
f 897 909 896
f 908 910 897
f 907 910 908
f 897 911 909
f 910 911 897
f 909 912 898
f 911 912 909
f 898 913 899
f 912 913 898
f 899 914 900
f 913 914 899
f 914 915 900
f 900 915 901
f 902 916 903
f 903 917 904
f 916 917 903
f 904 918 905
f 917 918 904
f 918 919 905
f 906 920 907
f 905 920 906
f 919 920 905
f 907 921 910
f 920 921 907
f 910 922 911
f 921 922 910
f 911 923 912
f 922 923 911
f 912 924 913
f 923 924 912
f 913 925 914
f 924 925 913
f 925 926 914
f 914 926 915
f 926 927 915
f 916 928 917
f 917 929 918
f 928 929 917
f 918 930 919
f 929 930 918
f 930 931 919
f 931 932 919
f 920 932 921
f 919 932 920
f 932 933 921
f 921 933 922
f 922 934 923
f 933 934 922
f 934 935 923
f 923 935 924
f 924 936 925
f 935 936 924
f 925 937 926
f 936 937 925
f 926 938 927
f 937 938 926
f 938 939 927
f 928 940 929
f 929 941 930
f 940 941 929
f 941 942 930
f 930 942 931
f 942 943 931
f 932 944 933
f 931 944 932
f 943 944 931
f 933 945 934
f 944 945 933
f 945 946 934
f 946 947 934
f 935 947 936
f 934 947 935
f 947 948 936
f 948 949 936
f 936 949 937
f 949 950 937
f 937 950 938
f 938 951 939
f 950 951 938
f 951 952 939
f 940 953 941
f 941 954 942
f 953 954 941
f 954 955 942
f 942 955 943
f 955 956 943
f 956 957 943
f 945 957 946
f 944 957 945
f 943 957 944
f 957 958 946
f 947 959 948
f 946 959 947
f 958 959 946
f 959 960 948
f 948 961 949
f 960 961 948
f 961 962 949
f 950 962 951
f 949 962 950
f 962 963 951
f 963 964 951
f 951 964 952
f 964 965 952
f 953 966 954
f 954 967 955
f 966 967 954
f 967 968 955
f 955 968 956
f 968 969 956
f 957 970 958
f 956 970 957
f 969 970 956
f 970 971 958
f 969 971 970
f 959 972 960
f 958 972 959
f 971 972 958
f 972 973 960
f 960 974 961
f 973 974 960
f 962 975 963
f 961 975 962
f 974 975 961
f 975 976 963
f 964 977 965
f 963 977 964
f 976 977 963
f 966 978 967
f 978 979 967
f 967 979 968
f 968 980 969
f 979 980 968
f 980 981 969
f 969 982 971
f 981 982 969
f 982 983 971
f 972 983 973
f 971 983 972
f 983 984 973
f 973 985 974
f 984 985 973
f 975 986 976
f 974 986 975
f 985 986 974
f 978 987 979
f 987 988 979
f 979 988 980
f 980 989 981
f 988 989 980
f 989 990 981
f 981 991 982
f 990 991 981
f 983 992 984
f 982 992 983
f 991 992 982
f 987 993 988
f 988 994 989
f 993 994 988
f 989 995 990
f 994 995 989
f 993 996 994
f 994 997 995
f 996 997 994
